<?xml version="1.0" encoding="utf-8" standalone="no"?>
<!DOCTYPE svg PUBLIC "-//W3C//DTD SVG 1.1//EN"
  "http://www.w3.org/Graphics/SVG/1.1/DTD/svg11.dtd">
<svg xmlns:xlink="http://www.w3.org/1999/xlink" width="447.116122pt" height="245.375129pt" viewBox="0 0 447.116122 245.375129" xmlns="http://www.w3.org/2000/svg" version="1.1">
 <metadata>
  <rdf:RDF xmlns:dc="http://purl.org/dc/elements/1.1/" xmlns:cc="http://creativecommons.org/ns#" xmlns:rdf="http://www.w3.org/1999/02/22-rdf-syntax-ns#">
   <cc:Work>
    <dc:type rdf:resource="http://purl.org/dc/dcmitype/StillImage"/>
    <dc:date>2026-09-17T19:31:10.659716</dc:date>
    <dc:format>image/svg+xml</dc:format>
    <dc:creator>
     <cc:Agent>
      <dc:title>Matplotlib v3.10.1, https://matplotlib.org/</dc:title>
     </cc:Agent>
    </dc:creator>
   </cc:Work>
  </rdf:RDF>
 </metadata>
 <defs>
  <style type="text/css">*{stroke-linejoin: round; stroke-linecap: butt}</style>
 </defs>
 <g id="figure_1">
  <g id="patch_1">
   <path d="M 0 245.375129 
L 447.116122 245.375129 
L 447.116122 0 
L 0 0 
z
" style="fill: #ffffff"/>
  </g>
  <g id="axes_1">
   <g id="patch_2">
    <path d="M 37.8925 205.476947 
L 151.711816 205.476947 
L 151.711816 22.132065 
L 37.8925 22.132065 
z
" style="fill: #ffffff"/>
   </g>
   <g id="matplotlib.axis_1">
    <g id="xtick_1">
     <g id="line2d_1">
      <defs>
       <path id="m435872f96e" d="M 0 0 
L 0 3.5 
" style="stroke: #222222; stroke-width: 0.8"/>
      </defs>
      <g>
       <use xlink:href="#m435872f96e" x="47.769383" y="205.476947" style="fill: #222222; stroke: #222222; stroke-width: 0.8"/>
      </g>
     </g>
     <g id="text_1">
      <text style="font-size: 6.4px; font-family: 'Microsoft YaHei', 'SimHei', 'Arial', 'Helvetica', 'DejaVu Sans', sans-serif; fill: #222222" transform="translate(42.150246 224.413533) rotate(-30)">2024</text>
     </g>
    </g>
    <g id="xtick_2">
     <g id="line2d_2">
      <g>
       <use xlink:href="#m435872f96e" x="63.446975" y="205.476947" style="fill: #222222; stroke: #222222; stroke-width: 0.8"/>
      </g>
     </g>
     <g id="text_2">
      <text style="font-size: 6.4px; font-family: 'Microsoft YaHei', 'SimHei', 'Arial', 'Helvetica', 'DejaVu Sans', sans-serif; fill: #222222" transform="translate(57.827838 224.413533) rotate(-30)">2025</text>
     </g>
    </g>
    <g id="xtick_3">
     <g id="line2d_3">
      <g>
       <use xlink:href="#m435872f96e" x="79.124566" y="205.476947" style="fill: #222222; stroke: #222222; stroke-width: 0.8"/>
      </g>
     </g>
     <g id="text_3">
      <text style="font-size: 6.4px; font-family: 'Microsoft YaHei', 'SimHei', 'Arial', 'Helvetica', 'DejaVu Sans', sans-serif; fill: #222222" transform="translate(73.50543 224.413533) rotate(-30)">2026</text>
     </g>
    </g>
    <g id="xtick_4">
     <g id="line2d_4">
      <g>
       <use xlink:href="#m435872f96e" x="94.802158" y="205.476947" style="fill: #222222; stroke: #222222; stroke-width: 0.8"/>
      </g>
     </g>
     <g id="text_4">
      <text style="font-size: 6.4px; font-family: 'Microsoft YaHei', 'SimHei', 'Arial', 'Helvetica', 'DejaVu Sans', sans-serif; fill: #222222" transform="translate(89.183022 224.413533) rotate(-30)">2027</text>
     </g>
    </g>
    <g id="xtick_5">
     <g id="line2d_5">
      <g>
       <use xlink:href="#m435872f96e" x="110.47975" y="205.476947" style="fill: #222222; stroke: #222222; stroke-width: 0.8"/>
      </g>
     </g>
     <g id="text_5">
      <text style="font-size: 6.4px; font-family: 'Microsoft YaHei', 'SimHei', 'Arial', 'Helvetica', 'DejaVu Sans', sans-serif; fill: #222222" transform="translate(104.860613 224.413533) rotate(-30)">2028</text>
     </g>
    </g>
    <g id="xtick_6">
     <g id="line2d_6">
      <g>
       <use xlink:href="#m435872f96e" x="126.157342" y="205.476947" style="fill: #222222; stroke: #222222; stroke-width: 0.8"/>
      </g>
     </g>
     <g id="text_6">
      <text style="font-size: 6.4px; font-family: 'Microsoft YaHei', 'SimHei', 'Arial', 'Helvetica', 'DejaVu Sans', sans-serif; fill: #222222" transform="translate(120.538205 224.413533) rotate(-30)">2029</text>
     </g>
    </g>
    <g id="xtick_7">
     <g id="line2d_7">
      <g>
       <use xlink:href="#m435872f96e" x="141.834934" y="205.476947" style="fill: #222222; stroke: #222222; stroke-width: 0.8"/>
      </g>
     </g>
     <g id="text_7">
      <text style="font-size: 6.4px; font-family: 'Microsoft YaHei', 'SimHei', 'Arial', 'Helvetica', 'DejaVu Sans', sans-serif; fill: #222222" transform="translate(136.215797 224.413533) rotate(-30)">2030</text>
     </g>
    </g>
    <g id="text_8">
     <text style="font-size: 8px; font-family: 'Microsoft YaHei', 'SimHei', 'Arial', 'Helvetica', 'DejaVu Sans', sans-serif; text-anchor: middle; fill: #222222" x="94.802158" y="236.186379" transform="rotate(-0 94.802158 236.186379)">年份</text>
    </g>
   </g>
   <g id="matplotlib.axis_2">
    <g id="ytick_1">
     <g id="line2d_8">
      <defs>
       <path id="m441a77061c" d="M 0 0 
L -3.5 0 
" style="stroke: #222222; stroke-width: 0.8"/>
      </defs>
      <g>
       <use xlink:href="#m441a77061c" x="37.8925" y="197.143089" style="fill: #222222; stroke: #222222; stroke-width: 0.8"/>
      </g>
     </g>
     <g id="text_9">
      <text style="font-size: 8px; font-family: 'Microsoft YaHei', 'SimHei', 'Arial', 'Helvetica', 'DejaVu Sans', sans-serif; text-anchor: end; fill: #222222" x="30.8925" y="200.340589" transform="rotate(-0 30.8925 200.340589)">0.0</text>
     </g>
    </g>
    <g id="ytick_2">
     <g id="line2d_9">
      <g>
       <use xlink:href="#m441a77061c" x="37.8925" y="163.807656" style="fill: #222222; stroke: #222222; stroke-width: 0.8"/>
      </g>
     </g>
     <g id="text_10">
      <text style="font-size: 8px; font-family: 'Microsoft YaHei', 'SimHei', 'Arial', 'Helvetica', 'DejaVu Sans', sans-serif; text-anchor: end; fill: #222222" x="30.8925" y="167.005156" transform="rotate(-0 30.8925 167.005156)">0.2</text>
     </g>
    </g>
    <g id="ytick_3">
     <g id="line2d_10">
      <g>
       <use xlink:href="#m441a77061c" x="37.8925" y="130.472223" style="fill: #222222; stroke: #222222; stroke-width: 0.8"/>
      </g>
     </g>
     <g id="text_11">
      <text style="font-size: 8px; font-family: 'Microsoft YaHei', 'SimHei', 'Arial', 'Helvetica', 'DejaVu Sans', sans-serif; text-anchor: end; fill: #222222" x="30.8925" y="133.669723" transform="rotate(-0 30.8925 133.669723)">0.4</text>
     </g>
    </g>
    <g id="ytick_4">
     <g id="line2d_11">
      <g>
       <use xlink:href="#m441a77061c" x="37.8925" y="97.13679" style="fill: #222222; stroke: #222222; stroke-width: 0.8"/>
      </g>
     </g>
     <g id="text_12">
      <text style="font-size: 8px; font-family: 'Microsoft YaHei', 'SimHei', 'Arial', 'Helvetica', 'DejaVu Sans', sans-serif; text-anchor: end; fill: #222222" x="30.8925" y="100.33429" transform="rotate(-0 30.8925 100.33429)">0.6</text>
     </g>
    </g>
    <g id="ytick_5">
     <g id="line2d_12">
      <g>
       <use xlink:href="#m441a77061c" x="37.8925" y="63.801357" style="fill: #222222; stroke: #222222; stroke-width: 0.8"/>
      </g>
     </g>
     <g id="text_13">
      <text style="font-size: 8px; font-family: 'Microsoft YaHei', 'SimHei', 'Arial', 'Helvetica', 'DejaVu Sans', sans-serif; text-anchor: end; fill: #222222" x="30.8925" y="66.998857" transform="rotate(-0 30.8925 66.998857)">0.8</text>
     </g>
    </g>
    <g id="ytick_6">
     <g id="line2d_13">
      <g>
       <use xlink:href="#m441a77061c" x="37.8925" y="30.465923" style="fill: #222222; stroke: #222222; stroke-width: 0.8"/>
      </g>
     </g>
     <g id="text_14">
      <text style="font-size: 8px; font-family: 'Microsoft YaHei', 'SimHei', 'Arial', 'Helvetica', 'DejaVu Sans', sans-serif; text-anchor: end; fill: #222222" x="30.8925" y="33.663423" transform="rotate(-0 30.8925 33.663423)">1.0</text>
     </g>
    </g>
    <g id="text_15">
     <text style="font-size: 8px; font-family: 'Microsoft YaHei', 'SimHei', 'Arial', 'Helvetica', 'DejaVu Sans', sans-serif; text-anchor: middle; fill: #222222" x="13.595" y="113.804506" transform="rotate(-90 13.595 113.804506)">平均季次利用强度</text>
    </g>
   </g>
   <g id="line2d_14">
    <path d="M 43.066105 78.765851 
L 58.743697 73.658076 
L 74.421289 65.919707 
L 90.098881 69.950698 
L 105.776472 118.751081 
L 121.454064 73.344496 
L 137.131656 94.257899 
" clip-path="url(#p22e31ca99f)" style="fill: none; stroke: #0f4d92; stroke-width: 1.5; stroke-linecap: square"/>
    <defs>
     <path id="mda0de9f86d" d="M 0 1.3 
C 0.344764 1.3 0.675454 1.163024 0.919239 0.919239 
C 1.163024 0.675454 1.3 0.344764 1.3 0 
C 1.3 -0.344764 1.163024 -0.675454 0.919239 -0.919239 
C 0.675454 -1.163024 0.344764 -1.3 0 -1.3 
C -0.344764 -1.3 -0.675454 -1.163024 -0.919239 -0.919239 
C -1.163024 -0.675454 -1.3 -0.344764 -1.3 0 
C -1.3 0.344764 -1.163024 0.675454 -0.919239 0.919239 
C -0.675454 1.163024 -0.344764 1.3 0 1.3 
z
" style="stroke: #0f4d92"/>
    </defs>
    <g clip-path="url(#p22e31ca99f)">
     <use xlink:href="#mda0de9f86d" x="43.066105" y="78.765851" style="fill: #0f4d92; stroke: #0f4d92"/>
     <use xlink:href="#mda0de9f86d" x="58.743697" y="73.658076" style="fill: #0f4d92; stroke: #0f4d92"/>
     <use xlink:href="#mda0de9f86d" x="74.421289" y="65.919707" style="fill: #0f4d92; stroke: #0f4d92"/>
     <use xlink:href="#mda0de9f86d" x="90.098881" y="69.950698" style="fill: #0f4d92; stroke: #0f4d92"/>
     <use xlink:href="#mda0de9f86d" x="105.776472" y="118.751081" style="fill: #0f4d92; stroke: #0f4d92"/>
     <use xlink:href="#mda0de9f86d" x="121.454064" y="73.344496" style="fill: #0f4d92; stroke: #0f4d92"/>
     <use xlink:href="#mda0de9f86d" x="137.131656" y="94.257899" style="fill: #0f4d92; stroke: #0f4d92"/>
    </g>
   </g>
   <g id="line2d_15">
    <path d="M 44.947416 197.143089 
L 60.625008 157.215423 
L 76.3026 196.059326 
L 91.980192 170.178987 
L 107.657784 195.769155 
L 123.335375 152.272777 
L 139.012967 197.143089 
" clip-path="url(#p22e31ca99f)" style="fill: none; stroke: #3775ba; stroke-width: 1.5; stroke-linecap: square"/>
    <defs>
     <path id="mec56f0de9d" d="M 0 1.3 
C 0.344764 1.3 0.675454 1.163024 0.919239 0.919239 
C 1.163024 0.675454 1.3 0.344764 1.3 0 
C 1.3 -0.344764 1.163024 -0.675454 0.919239 -0.919239 
C 0.675454 -1.163024 0.344764 -1.3 0 -1.3 
C -0.344764 -1.3 -0.675454 -1.163024 -0.919239 -0.919239 
C -1.163024 -0.675454 -1.3 -0.344764 -1.3 0 
C -1.3 0.344764 -1.163024 0.675454 -0.919239 0.919239 
C -0.675454 1.163024 -0.344764 1.3 0 1.3 
z
" style="stroke: #3775ba"/>
    </defs>
    <g clip-path="url(#p22e31ca99f)">
     <use xlink:href="#mec56f0de9d" x="44.947416" y="197.143089" style="fill: #3775ba; stroke: #3775ba"/>
     <use xlink:href="#mec56f0de9d" x="60.625008" y="157.215423" style="fill: #3775ba; stroke: #3775ba"/>
     <use xlink:href="#mec56f0de9d" x="76.3026" y="196.059326" style="fill: #3775ba; stroke: #3775ba"/>
     <use xlink:href="#mec56f0de9d" x="91.980192" y="170.178987" style="fill: #3775ba; stroke: #3775ba"/>
     <use xlink:href="#mec56f0de9d" x="107.657784" y="195.769155" style="fill: #3775ba; stroke: #3775ba"/>
     <use xlink:href="#mec56f0de9d" x="123.335375" y="152.272777" style="fill: #3775ba; stroke: #3775ba"/>
     <use xlink:href="#mec56f0de9d" x="139.012967" y="197.143089" style="fill: #3775ba; stroke: #3775ba"/>
    </g>
   </g>
   <g id="line2d_16">
    <path d="M 46.828727 197.143089 
L 62.506319 194.260072 
L 78.183911 194.087341 
L 93.861503 197.143089 
L 109.539095 194.260072 
L 125.216686 30.465923 
L 140.894278 197.143089 
" clip-path="url(#p22e31ca99f)" style="fill: none; stroke: #3f8efc; stroke-width: 1.5; stroke-linecap: square"/>
    <defs>
     <path id="m31792aa23b" d="M 0 1.3 
C 0.344764 1.3 0.675454 1.163024 0.919239 0.919239 
C 1.163024 0.675454 1.3 0.344764 1.3 0 
C 1.3 -0.344764 1.163024 -0.675454 0.919239 -0.919239 
C 0.675454 -1.163024 0.344764 -1.3 0 -1.3 
C -0.344764 -1.3 -0.675454 -1.163024 -0.919239 -0.919239 
C -1.163024 -0.675454 -1.3 -0.344764 -1.3 0 
C -1.3 0.344764 -1.163024 0.675454 -0.919239 0.919239 
C -0.675454 1.163024 -0.344764 1.3 0 1.3 
z
" style="stroke: #3f8efc"/>
    </defs>
    <g clip-path="url(#p22e31ca99f)">
     <use xlink:href="#m31792aa23b" x="46.828727" y="197.143089" style="fill: #3f8efc; stroke: #3f8efc"/>
     <use xlink:href="#m31792aa23b" x="62.506319" y="194.260072" style="fill: #3f8efc; stroke: #3f8efc"/>
     <use xlink:href="#m31792aa23b" x="78.183911" y="194.087341" style="fill: #3f8efc; stroke: #3f8efc"/>
     <use xlink:href="#m31792aa23b" x="93.861503" y="197.143089" style="fill: #3f8efc; stroke: #3f8efc"/>
     <use xlink:href="#m31792aa23b" x="109.539095" y="194.260072" style="fill: #3f8efc; stroke: #3f8efc"/>
     <use xlink:href="#m31792aa23b" x="125.216686" y="30.465923" style="fill: #3f8efc; stroke: #3f8efc"/>
     <use xlink:href="#m31792aa23b" x="140.894278" y="197.143089" style="fill: #3f8efc; stroke: #3f8efc"/>
    </g>
   </g>
   <g id="line2d_17">
    <path d="M 48.710038 135.719351 
L 64.38763 156.464655 
L 80.065222 158.356039 
L 95.742814 140.497334 
L 111.420406 157.728085 
L 127.097997 152.588142 
L 142.775589 159.287858 
" clip-path="url(#p22e31ca99f)" style="fill: none; stroke: #4f8a4b; stroke-width: 1.5; stroke-linecap: square"/>
    <defs>
     <path id="m3437065ea6" d="M 0 1.3 
C 0.344764 1.3 0.675454 1.163024 0.919239 0.919239 
C 1.163024 0.675454 1.3 0.344764 1.3 0 
C 1.3 -0.344764 1.163024 -0.675454 0.919239 -0.919239 
C 0.675454 -1.163024 0.344764 -1.3 0 -1.3 
C -0.344764 -1.3 -0.675454 -1.163024 -0.919239 -0.919239 
C -1.163024 -0.675454 -1.3 -0.344764 -1.3 0 
C -1.3 0.344764 -1.163024 0.675454 -0.919239 0.919239 
C -0.675454 1.163024 -0.344764 1.3 0 1.3 
z
" style="stroke: #4f8a4b"/>
    </defs>
    <g clip-path="url(#p22e31ca99f)">
     <use xlink:href="#m3437065ea6" x="48.710038" y="135.719351" style="fill: #4f8a4b; stroke: #4f8a4b"/>
     <use xlink:href="#m3437065ea6" x="64.38763" y="156.464655" style="fill: #4f8a4b; stroke: #4f8a4b"/>
     <use xlink:href="#m3437065ea6" x="80.065222" y="158.356039" style="fill: #4f8a4b; stroke: #4f8a4b"/>
     <use xlink:href="#m3437065ea6" x="95.742814" y="140.497334" style="fill: #4f8a4b; stroke: #4f8a4b"/>
     <use xlink:href="#m3437065ea6" x="111.420406" y="157.728085" style="fill: #4f8a4b; stroke: #4f8a4b"/>
     <use xlink:href="#m3437065ea6" x="127.097997" y="152.588142" style="fill: #4f8a4b; stroke: #4f8a4b"/>
     <use xlink:href="#m3437065ea6" x="142.775589" y="159.287858" style="fill: #4f8a4b; stroke: #4f8a4b"/>
    </g>
   </g>
   <g id="line2d_18">
    <path d="M 50.591349 30.665589 
L 66.268941 94.83002 
L 81.946533 74.119467 
L 97.624125 39.079313 
L 113.301717 96.479697 
L 128.979308 79.71145 
L 144.6569 48.468794 
" clip-path="url(#p22e31ca99f)" style="fill: none; stroke: #aadca9; stroke-width: 1.5; stroke-linecap: square"/>
    <defs>
     <path id="me12a2b69ec" d="M 0 1.3 
C 0.344764 1.3 0.675454 1.163024 0.919239 0.919239 
C 1.163024 0.675454 1.3 0.344764 1.3 0 
C 1.3 -0.344764 1.163024 -0.675454 0.919239 -0.919239 
C 0.675454 -1.163024 0.344764 -1.3 0 -1.3 
C -0.344764 -1.3 -0.675454 -1.163024 -0.919239 -0.919239 
C -1.163024 -0.675454 -1.3 -0.344764 -1.3 0 
C -1.3 0.344764 -1.163024 0.675454 -0.919239 0.919239 
C -0.675454 1.163024 -0.344764 1.3 0 1.3 
z
" style="stroke: #aadca9"/>
    </defs>
    <g clip-path="url(#p22e31ca99f)">
     <use xlink:href="#me12a2b69ec" x="50.591349" y="30.665589" style="fill: #aadca9; stroke: #aadca9"/>
     <use xlink:href="#me12a2b69ec" x="66.268941" y="94.83002" style="fill: #aadca9; stroke: #aadca9"/>
     <use xlink:href="#me12a2b69ec" x="81.946533" y="74.119467" style="fill: #aadca9; stroke: #aadca9"/>
     <use xlink:href="#me12a2b69ec" x="97.624125" y="39.079313" style="fill: #aadca9; stroke: #aadca9"/>
     <use xlink:href="#me12a2b69ec" x="113.301717" y="96.479697" style="fill: #aadca9; stroke: #aadca9"/>
     <use xlink:href="#me12a2b69ec" x="128.979308" y="79.71145" style="fill: #aadca9; stroke: #aadca9"/>
     <use xlink:href="#me12a2b69ec" x="144.6569" y="48.468794" style="fill: #aadca9; stroke: #aadca9"/>
    </g>
   </g>
   <g id="line2d_19">
    <path d="M 52.47266 197.143089 
L 68.150252 113.804506 
L 83.827844 197.143089 
L 99.505436 197.143089 
L 115.183028 113.804506 
L 130.860619 197.143089 
L 146.538211 197.143089 
" clip-path="url(#p22e31ca99f)" style="fill: none; stroke: #b64342; stroke-width: 1.5; stroke-linecap: square"/>
    <defs>
     <path id="m0eeea3a9be" d="M 0 1.3 
C 0.344764 1.3 0.675454 1.163024 0.919239 0.919239 
C 1.163024 0.675454 1.3 0.344764 1.3 0 
C 1.3 -0.344764 1.163024 -0.675454 0.919239 -0.919239 
C 0.675454 -1.163024 0.344764 -1.3 0 -1.3 
C -0.344764 -1.3 -0.675454 -1.163024 -0.919239 -0.919239 
C -1.163024 -0.675454 -1.3 -0.344764 -1.3 0 
C -1.3 0.344764 -1.163024 0.675454 -0.919239 0.919239 
C -0.675454 1.163024 -0.344764 1.3 0 1.3 
z
" style="stroke: #b64342"/>
    </defs>
    <g clip-path="url(#p22e31ca99f)">
     <use xlink:href="#m0eeea3a9be" x="52.47266" y="197.143089" style="fill: #b64342; stroke: #b64342"/>
     <use xlink:href="#m0eeea3a9be" x="68.150252" y="113.804506" style="fill: #b64342; stroke: #b64342"/>
     <use xlink:href="#m0eeea3a9be" x="83.827844" y="197.143089" style="fill: #b64342; stroke: #b64342"/>
     <use xlink:href="#m0eeea3a9be" x="99.505436" y="197.143089" style="fill: #b64342; stroke: #b64342"/>
     <use xlink:href="#m0eeea3a9be" x="115.183028" y="113.804506" style="fill: #b64342; stroke: #b64342"/>
     <use xlink:href="#m0eeea3a9be" x="130.860619" y="197.143089" style="fill: #b64342; stroke: #b64342"/>
     <use xlink:href="#m0eeea3a9be" x="146.538211" y="197.143089" style="fill: #b64342; stroke: #b64342"/>
    </g>
   </g>
   <g id="patch_3">
    <path d="M 37.8925 205.476947 
L 37.8925 22.132065 
" style="fill: none; stroke: #000000; stroke-linejoin: miter; stroke-linecap: square"/>
   </g>
   <g id="patch_4">
    <path d="M 37.8925 205.476947 
L 151.711816 205.476947 
" style="fill: none; stroke: #000000; stroke-linejoin: miter; stroke-linecap: square"/>
   </g>
   <g id="text_16">
    <text style="font-weight: 700; font-size: 9px; font-family: 'Microsoft YaHei', 'SimHei', 'Arial', 'Helvetica', 'DejaVu Sans', sans-serif; text-anchor: start; fill: #222222" x="15.128637" y="14.394375" transform="rotate(-0 15.128637 14.394375)">a</text>
   </g>
   <g id="text_17">
    <text style="font-size: 8.6px; font-family: 'Microsoft YaHei', 'SimHei', 'Arial', 'Helvetica', 'DejaVu Sans', sans-serif; text-anchor: middle; fill: #222222" x="94.802158" y="14.132065" transform="rotate(-0 94.802158 14.132065)">问题三方案的逐年利用强度</text>
   </g>
   <g id="legend_1">
    <g id="line2d_20">
     <path d="M 64.911816 179.747572 
L 70.511816 179.747572 
L 76.111816 179.747572 
" style="fill: none; stroke: #0f4d92; stroke-width: 1.5; stroke-linecap: square"/>
     <g>
      <use xlink:href="#mda0de9f86d" x="70.511816" y="179.747572" style="fill: #0f4d92; stroke: #0f4d92"/>
     </g>
    </g>
    <g id="text_18">
     <text style="font-size: 5.6px; font-family: 'Microsoft YaHei', 'SimHei', 'Arial', 'Helvetica', 'DejaVu Sans', sans-serif; text-anchor: start; fill: #222222" x="80.591816" y="181.707572" transform="rotate(-0 80.591816 181.707572)">平旱地</text>
    </g>
    <g id="line2d_21">
     <path d="M 64.911816 188.416197 
L 70.511816 188.416197 
L 76.111816 188.416197 
" style="fill: none; stroke: #3775ba; stroke-width: 1.5; stroke-linecap: square"/>
     <g>
      <use xlink:href="#mec56f0de9d" x="70.511816" y="188.416197" style="fill: #3775ba; stroke: #3775ba"/>
     </g>
    </g>
    <g id="text_19">
     <text style="font-size: 5.6px; font-family: 'Microsoft YaHei', 'SimHei', 'Arial', 'Helvetica', 'DejaVu Sans', sans-serif; text-anchor: start; fill: #222222" x="80.591816" y="190.376197" transform="rotate(-0 80.591816 190.376197)">梯田</text>
    </g>
    <g id="line2d_22">
     <path d="M 64.911816 197.084822 
L 70.511816 197.084822 
L 76.111816 197.084822 
" style="fill: none; stroke: #3f8efc; stroke-width: 1.5; stroke-linecap: square"/>
     <g>
      <use xlink:href="#m31792aa23b" x="70.511816" y="197.084822" style="fill: #3f8efc; stroke: #3f8efc"/>
     </g>
    </g>
    <g id="text_20">
     <text style="font-size: 5.6px; font-family: 'Microsoft YaHei', 'SimHei', 'Arial', 'Helvetica', 'DejaVu Sans', sans-serif; text-anchor: start; fill: #222222" x="80.591816" y="199.044822" transform="rotate(-0 80.591816 199.044822)">山坡地</text>
    </g>
    <g id="line2d_23">
     <path d="M 108.591816 179.747572 
L 114.191816 179.747572 
L 119.791816 179.747572 
" style="fill: none; stroke: #4f8a4b; stroke-width: 1.5; stroke-linecap: square"/>
     <g>
      <use xlink:href="#m3437065ea6" x="114.191816" y="179.747572" style="fill: #4f8a4b; stroke: #4f8a4b"/>
     </g>
    </g>
    <g id="text_21">
     <text style="font-size: 5.6px; font-family: 'Microsoft YaHei', 'SimHei', 'Arial', 'Helvetica', 'DejaVu Sans', sans-serif; text-anchor: start; fill: #222222" x="124.271816" y="181.707572" transform="rotate(-0 124.271816 181.707572)">水浇地</text>
    </g>
    <g id="line2d_24">
     <path d="M 108.591816 188.416197 
L 114.191816 188.416197 
L 119.791816 188.416197 
" style="fill: none; stroke: #aadca9; stroke-width: 1.5; stroke-linecap: square"/>
     <g>
      <use xlink:href="#me12a2b69ec" x="114.191816" y="188.416197" style="fill: #aadca9; stroke: #aadca9"/>
     </g>
    </g>
    <g id="text_22">
     <text style="font-size: 5.6px; font-family: 'Microsoft YaHei', 'SimHei', 'Arial', 'Helvetica', 'DejaVu Sans', sans-serif; text-anchor: start; fill: #222222" x="124.271816" y="190.376197" transform="rotate(-0 124.271816 190.376197)">普通大棚</text>
    </g>
    <g id="line2d_25">
     <path d="M 108.591816 197.084822 
L 114.191816 197.084822 
L 119.791816 197.084822 
" style="fill: none; stroke: #b64342; stroke-width: 1.5; stroke-linecap: square"/>
     <g>
      <use xlink:href="#m0eeea3a9be" x="114.191816" y="197.084822" style="fill: #b64342; stroke: #b64342"/>
     </g>
    </g>
    <g id="text_23">
     <text style="font-size: 5.6px; font-family: 'Microsoft YaHei', 'SimHei', 'Arial', 'Helvetica', 'DejaVu Sans', sans-serif; text-anchor: start; fill: #222222" x="124.271816" y="199.044822" transform="rotate(-0 124.271816 199.044822)">智慧大棚</text>
    </g>
   </g>
  </g>
  <g id="axes_2">
   <g id="patch_5">
    <path d="M 192.341863 205.476947 
L 295.813969 205.476947 
L 295.813969 22.132065 
L 192.341863 22.132065 
z
" style="fill: #ffffff"/>
   </g>
   <g id="matplotlib.axis_3">
    <g id="xtick_8">
     <g id="line2d_26">
      <g>
       <use xlink:href="#m435872f96e" x="203.838764" y="205.476947" style="fill: #222222; stroke: #222222; stroke-width: 0.8"/>
      </g>
     </g>
     <g id="text_24">
      <text style="font-size: 8px; font-family: 'Microsoft YaHei', 'SimHei', 'Arial', 'Helvetica', 'DejaVu Sans', sans-serif; text-anchor: middle; fill: #222222" x="203.838764" y="218.871947" transform="rotate(-0 203.838764 218.871947)">0</text>
     </g>
    </g>
    <g id="xtick_9">
     <g id="line2d_27">
      <g>
       <use xlink:href="#m435872f96e" x="261.323267" y="205.476947" style="fill: #222222; stroke: #222222; stroke-width: 0.8"/>
      </g>
     </g>
     <g id="text_25">
      <text style="font-size: 8px; font-family: 'Microsoft YaHei', 'SimHei', 'Arial', 'Helvetica', 'DejaVu Sans', sans-serif; text-anchor: middle; fill: #222222" x="261.323267" y="218.871947" transform="rotate(-0 261.323267 218.871947)">1</text>
     </g>
    </g>
    <g id="text_26">
     <text style="font-size: 8px; font-family: 'Microsoft YaHei', 'SimHei', 'Arial', 'Helvetica', 'DejaVu Sans', sans-serif; text-anchor: middle; fill: #222222" x="244.077916" y="231.255697" transform="rotate(-0 244.077916 231.255697)">违规记录数</text>
    </g>
   </g>
   <g id="matplotlib.axis_4">
    <g id="ytick_7">
     <g id="line2d_28">
      <g>
       <use xlink:href="#m441a77061c" x="192.341863" y="38.498558" style="fill: #222222; stroke: #222222; stroke-width: 0.8"/>
      </g>
     </g>
     <g id="text_27">
      <text style="font-size: 7px; font-family: 'Microsoft YaHei', 'SimHei', 'Arial', 'Helvetica', 'DejaVu Sans', sans-serif; text-anchor: end; fill: #222222" x="185.341863" y="41.29637" transform="rotate(-0 185.341863 41.29637)">重茬违规</text>
     </g>
    </g>
    <g id="ytick_8">
     <g id="line2d_29">
      <g>
       <use xlink:href="#m441a77061c" x="192.341863" y="88.702523" style="fill: #222222; stroke: #222222; stroke-width: 0.8"/>
      </g>
     </g>
     <g id="text_28">
      <text style="font-size: 7px; font-family: 'Microsoft YaHei', 'SimHei', 'Arial', 'Helvetica', 'DejaVu Sans', sans-serif; text-anchor: end; fill: #222222" x="185.341863" y="91.500336" transform="rotate(-0 185.341863 91.500336)">豆类窗口违规</text>
     </g>
    </g>
    <g id="ytick_9">
     <g id="line2d_30">
      <g>
       <use xlink:href="#m441a77061c" x="192.341863" y="138.906489" style="fill: #222222; stroke: #222222; stroke-width: 0.8"/>
      </g>
     </g>
     <g id="text_29">
      <text style="font-size: 7px; font-family: 'Microsoft YaHei', 'SimHei', 'Arial', 'Helvetica', 'DejaVu Sans', sans-serif; text-anchor: end; fill: #222222" x="185.341863" y="141.704301" transform="rotate(-0 185.341863 141.704301)">容量越界</text>
     </g>
    </g>
    <g id="ytick_10">
     <g id="line2d_31">
      <g>
       <use xlink:href="#m441a77061c" x="192.341863" y="189.110454" style="fill: #222222; stroke: #222222; stroke-width: 0.8"/>
      </g>
     </g>
     <g id="text_30">
      <text style="font-size: 7px; font-family: 'Microsoft YaHei', 'SimHei', 'Arial', 'Helvetica', 'DejaVu Sans', sans-serif; text-anchor: end; fill: #222222" x="185.341863" y="191.908267" transform="rotate(-0 185.341863 191.908267)">低于最小面积</text>
     </g>
    </g>
   </g>
   <g id="patch_6">
    <path d="M 192.341863 205.476947 
L 192.341863 22.132065 
" style="fill: none; stroke: #000000; stroke-linejoin: miter; stroke-linecap: square"/>
   </g>
   <g id="patch_7">
    <path d="M 192.341863 205.476947 
L 295.813969 205.476947 
" style="fill: none; stroke: #000000; stroke-linejoin: miter; stroke-linecap: square"/>
   </g>
   <g id="PathCollection_1">
    <defs>
     <path id="maa21af93d0" d="M 0 3.872983 
C 1.027127 3.872983 2.012324 3.464901 2.738613 2.738613 
C 3.464901 2.012324 3.872983 1.027127 3.872983 0 
C 3.872983 -1.027127 3.464901 -2.012324 2.738613 -2.738613 
C 2.012324 -3.464901 1.027127 -3.872983 0 -3.872983 
C -1.027127 -3.872983 -2.012324 -3.464901 -2.738613 -2.738613 
C -3.464901 -2.012324 -3.872983 -1.027127 -3.872983 0 
C -3.872983 1.027127 -3.464901 2.012324 -2.738613 2.738613 
C -2.012324 3.464901 -1.027127 3.872983 0 3.872983 
z
" style="stroke: #42949e"/>
    </defs>
    <g clip-path="url(#p11f958b8b9)">
     <use xlink:href="#maa21af93d0" x="203.838764" y="30.465923" style="fill: #42949e; stroke: #42949e"/>
    </g>
   </g>
   <g id="PathCollection_2">
    <defs>
     <path id="ma56659f71c" d="M -3.872983 3.872983 
L 3.872983 3.872983 
L 3.872983 -3.872983 
L -3.872983 -3.872983 
z
" style="stroke: #e28e2c"/>
    </defs>
    <g clip-path="url(#p11f958b8b9)">
     <use xlink:href="#ma56659f71c" x="203.838764" y="46.531192" style="fill: #e28e2c; stroke: #e28e2c"/>
    </g>
   </g>
   <g id="text_31">
    <text style="font-size: 6.6px; font-family: 'Microsoft YaHei', 'SimHei', 'Arial', 'Helvetica', 'DejaVu Sans', sans-serif; text-anchor: start; fill: #42949e" x="226.832565" y="32.283502" transform="rotate(-0 226.832565 32.283502)">0</text>
   </g>
   <g id="text_32">
    <text style="font-size: 6.6px; font-family: 'Microsoft YaHei', 'SimHei', 'Arial', 'Helvetica', 'DejaVu Sans', sans-serif; text-anchor: start; fill: #e28e2c" x="226.832565" y="48.348771" transform="rotate(-0 226.832565 48.348771)">0</text>
   </g>
   <g id="PathCollection_3">
    <g clip-path="url(#p11f958b8b9)">
     <use xlink:href="#maa21af93d0" x="203.838764" y="80.669889" style="fill: #42949e; stroke: #42949e"/>
    </g>
   </g>
   <g id="PathCollection_4">
    <g clip-path="url(#p11f958b8b9)">
     <use xlink:href="#ma56659f71c" x="203.838764" y="96.735158" style="fill: #e28e2c; stroke: #e28e2c"/>
    </g>
   </g>
   <g id="text_33">
    <text style="font-size: 6.6px; font-family: 'Microsoft YaHei', 'SimHei', 'Arial', 'Helvetica', 'DejaVu Sans', sans-serif; text-anchor: start; fill: #42949e" x="226.832565" y="82.487467" transform="rotate(-0 226.832565 82.487467)">0</text>
   </g>
   <g id="text_34">
    <text style="font-size: 6.6px; font-family: 'Microsoft YaHei', 'SimHei', 'Arial', 'Helvetica', 'DejaVu Sans', sans-serif; text-anchor: start; fill: #e28e2c" x="226.832565" y="98.552736" transform="rotate(-0 226.832565 98.552736)">0</text>
   </g>
   <g id="PathCollection_5">
    <g clip-path="url(#p11f958b8b9)">
     <use xlink:href="#maa21af93d0" x="203.838764" y="130.873854" style="fill: #42949e; stroke: #42949e"/>
    </g>
   </g>
   <g id="PathCollection_6">
    <g clip-path="url(#p11f958b8b9)">
     <use xlink:href="#ma56659f71c" x="203.838764" y="146.939123" style="fill: #e28e2c; stroke: #e28e2c"/>
    </g>
   </g>
   <g id="text_35">
    <text style="font-size: 6.6px; font-family: 'Microsoft YaHei', 'SimHei', 'Arial', 'Helvetica', 'DejaVu Sans', sans-serif; text-anchor: start; fill: #42949e" x="226.832565" y="132.691433" transform="rotate(-0 226.832565 132.691433)">0</text>
   </g>
   <g id="text_36">
    <text style="font-size: 6.6px; font-family: 'Microsoft YaHei', 'SimHei', 'Arial', 'Helvetica', 'DejaVu Sans', sans-serif; text-anchor: start; fill: #e28e2c" x="226.832565" y="148.756701" transform="rotate(-0 226.832565 148.756701)">0</text>
   </g>
   <g id="PathCollection_7">
    <g clip-path="url(#p11f958b8b9)">
     <use xlink:href="#maa21af93d0" x="203.838764" y="181.07782" style="fill: #42949e; stroke: #42949e"/>
    </g>
   </g>
   <g id="PathCollection_8">
    <g clip-path="url(#p11f958b8b9)">
     <use xlink:href="#ma56659f71c" x="203.838764" y="197.143089" style="fill: #e28e2c; stroke: #e28e2c"/>
    </g>
   </g>
   <g id="text_37">
    <text style="font-size: 6.6px; font-family: 'Microsoft YaHei', 'SimHei', 'Arial', 'Helvetica', 'DejaVu Sans', sans-serif; text-anchor: start; fill: #42949e" x="226.832565" y="182.895398" transform="rotate(-0 226.832565 182.895398)">0</text>
   </g>
   <g id="text_38">
    <text style="font-size: 6.6px; font-family: 'Microsoft YaHei', 'SimHei', 'Arial', 'Helvetica', 'DejaVu Sans', sans-serif; text-anchor: start; fill: #e28e2c" x="226.832565" y="198.960667" transform="rotate(-0 226.832565 198.960667)">0</text>
   </g>
   <g id="text_39">
    <text style="font-weight: 700; font-size: 9px; font-family: 'Microsoft YaHei', 'SimHei', 'Arial', 'Helvetica', 'DejaVu Sans', sans-serif; text-anchor: start; fill: #222222" x="165.439116" y="14.394375" transform="rotate(-0 165.439116 14.394375)">b</text>
   </g>
   <g id="text_40">
    <text style="font-size: 8.6px; font-family: 'Microsoft YaHei', 'SimHei', 'Arial', 'Helvetica', 'DejaVu Sans', sans-serif; text-anchor: middle; fill: #222222" x="244.077916" y="14.132065" transform="rotate(-0 244.077916 14.132065)">结构约束合规回检</text>
   </g>
   <g id="legend_2">
    <g id="line2d_32">
     <path d="M 241.873969 108.543225 
L 248.073969 108.543225 
L 254.273969 108.543225 
" style="fill: none"/>
     <defs>
      <path id="m86e13bac14" d="M 0 3 
C 0.795609 3 1.55874 2.683901 2.12132 2.12132 
C 2.683901 1.55874 3 0.795609 3 0 
C 3 -0.795609 2.683901 -1.55874 2.12132 -2.12132 
C 1.55874 -2.683901 0.795609 -3 0 -3 
C -0.795609 -3 -1.55874 -2.683901 -2.12132 -2.12132 
C -2.683901 -1.55874 -3 -0.795609 -3 0 
C -3 0.795609 -2.683901 1.55874 -2.12132 2.12132 
C -1.55874 2.683901 -0.795609 3 0 3 
z
" style="stroke: #42949e"/>
     </defs>
     <g>
      <use xlink:href="#m86e13bac14" x="248.073969" y="108.543225" style="fill: #42949e; stroke: #42949e"/>
     </g>
    </g>
    <g id="text_41">
     <text style="font-size: 6.2px; font-family: 'Microsoft YaHei', 'SimHei', 'Arial', 'Helvetica', 'DejaVu Sans', sans-serif; text-anchor: start; fill: #222222" x="259.233969" y="110.713225" transform="rotate(-0 259.233969 110.713225)">问题二方案</text>
    </g>
    <g id="line2d_33">
     <path d="M 241.873969 118.140631 
L 248.073969 118.140631 
L 254.273969 118.140631 
" style="fill: none"/>
     <defs>
      <path id="mcd84f55bc4" d="M -3 3 
L 3 3 
L 3 -3 
L -3 -3 
z
" style="stroke: #e28e2c; stroke-linejoin: miter"/>
     </defs>
     <g>
      <use xlink:href="#mcd84f55bc4" x="248.073969" y="118.140631" style="fill: #e28e2c; stroke: #e28e2c; stroke-linejoin: miter"/>
     </g>
    </g>
    <g id="text_42">
     <text style="font-size: 6.2px; font-family: 'Microsoft YaHei', 'SimHei', 'Arial', 'Helvetica', 'DejaVu Sans', sans-serif; text-anchor: start; fill: #222222" x="259.233969" y="120.310631" transform="rotate(-0 259.233969 120.310631)">问题三方案</text>
    </g>
   </g>
  </g>
  <g id="axes_3">
   <g id="patch_8">
    <path d="M 336.444016 205.476947 
L 439.916122 205.476947 
L 439.916122 22.132065 
L 336.444016 22.132065 
z
" style="fill: #ffffff"/>
   </g>
   <g id="matplotlib.axis_5">
    <g id="xtick_10">
     <g id="line2d_34">
      <g>
       <use xlink:href="#m435872f96e" x="339.850667" y="205.476947" style="fill: #222222; stroke: #222222; stroke-width: 0.8"/>
      </g>
     </g>
     <g id="text_43">
      <text style="font-size: 8px; font-family: 'Microsoft YaHei', 'SimHei', 'Arial', 'Helvetica', 'DejaVu Sans', sans-serif; text-anchor: middle; fill: #222222" x="339.850667" y="218.871947" transform="rotate(-0 339.850667 218.871947)">1.2</text>
     </g>
    </g>
    <g id="xtick_11">
     <g id="line2d_35">
      <g>
       <use xlink:href="#m435872f96e" x="367.680076" y="205.476947" style="fill: #222222; stroke: #222222; stroke-width: 0.8"/>
      </g>
     </g>
     <g id="text_44">
      <text style="font-size: 8px; font-family: 'Microsoft YaHei', 'SimHei', 'Arial', 'Helvetica', 'DejaVu Sans', sans-serif; text-anchor: middle; fill: #222222" x="367.680076" y="218.871947" transform="rotate(-0 367.680076 218.871947)">1.4</text>
     </g>
    </g>
    <g id="xtick_12">
     <g id="line2d_36">
      <g>
       <use xlink:href="#m435872f96e" x="395.509486" y="205.476947" style="fill: #222222; stroke: #222222; stroke-width: 0.8"/>
      </g>
     </g>
     <g id="text_45">
      <text style="font-size: 8px; font-family: 'Microsoft YaHei', 'SimHei', 'Arial', 'Helvetica', 'DejaVu Sans', sans-serif; text-anchor: middle; fill: #222222" x="395.509486" y="218.871947" transform="rotate(-0 395.509486 218.871947)">1.6</text>
     </g>
    </g>
    <g id="xtick_13">
     <g id="line2d_37">
      <g>
       <use xlink:href="#m435872f96e" x="423.338896" y="205.476947" style="fill: #222222; stroke: #222222; stroke-width: 0.8"/>
      </g>
     </g>
     <g id="text_46">
      <text style="font-size: 8px; font-family: 'Microsoft YaHei', 'SimHei', 'Arial', 'Helvetica', 'DejaVu Sans', sans-serif; text-anchor: middle; fill: #222222" x="423.338896" y="218.871947" transform="rotate(-0 423.338896 218.871947)">1.8</text>
     </g>
    </g>
    <g id="text_47">
     <text style="font-size: 8px; font-family: 'Microsoft YaHei', 'SimHei', 'Arial', 'Helvetica', 'DejaVu Sans', sans-serif; text-anchor: middle; fill: #222222" x="388.180069" y="231.255697" transform="rotate(-0 388.180069 231.255697)">七年利润 / 元</text>
    </g>
    <g id="text_48">
     <text style="font-size: 8px; font-family: 'Microsoft YaHei', 'SimHei', 'Arial', 'Helvetica', 'DejaVu Sans', sans-serif; text-anchor: end; fill: #222222" x="439.916122" y="230.255697" transform="rotate(-0 439.916122 230.255697)">1e7</text>
    </g>
   </g>
   <g id="matplotlib.axis_6">
    <g id="ytick_11">
     <g id="line2d_38">
      <g>
       <use xlink:href="#m441a77061c" x="336.444016" y="197.143089" style="fill: #222222; stroke: #222222; stroke-width: 0.8"/>
      </g>
     </g>
     <g id="text_49">
      <text style="font-size: 7px; font-family: 'Microsoft YaHei', 'SimHei', 'Arial', 'Helvetica', 'DejaVu Sans', sans-serif; text-anchor: end; fill: #222222" x="329.444016" y="199.940901" transform="rotate(-0 329.444016 199.940901)">λ=0</text>
     </g>
    </g>
    <g id="ytick_12">
     <g id="line2d_39">
      <g>
       <use xlink:href="#m441a77061c" x="336.444016" y="141.584034" style="fill: #222222; stroke: #222222; stroke-width: 0.8"/>
      </g>
     </g>
     <g id="text_50">
      <text style="font-size: 7px; font-family: 'Microsoft YaHei', 'SimHei', 'Arial', 'Helvetica', 'DejaVu Sans', sans-serif; text-anchor: end; fill: #222222" x="329.444016" y="144.381846" transform="rotate(-0 329.444016 144.381846)">λ=1</text>
     </g>
    </g>
    <g id="ytick_13">
     <g id="line2d_40">
      <g>
       <use xlink:href="#m441a77061c" x="336.444016" y="30.465923" style="fill: #222222; stroke: #222222; stroke-width: 0.8"/>
      </g>
     </g>
     <g id="text_51">
      <text style="font-size: 7px; font-family: 'Microsoft YaHei', 'SimHei', 'Arial', 'Helvetica', 'DejaVu Sans', sans-serif; text-anchor: end; fill: #222222" x="329.444016" y="33.263736" transform="rotate(-0 329.444016 33.263736)">λ=3</text>
     </g>
    </g>
   </g>
   <g id="LineCollection_1">
    <path d="M 346.733511 197.143089 
L 435.212845 197.143089 
" clip-path="url(#pe9b28f3ccc)" style="fill: none; stroke: #d8d8d8; stroke-width: 2"/>
    <path d="M 341.147294 141.584034 
L 427.071059 141.584034 
" clip-path="url(#pe9b28f3ccc)" style="fill: none; stroke: #d8d8d8; stroke-width: 2"/>
    <path d="M 343.084233 30.465923 
L 427.939622 30.465923 
" clip-path="url(#pe9b28f3ccc)" style="fill: none; stroke: #d8d8d8; stroke-width: 2"/>
   </g>
   <g id="patch_9">
    <path d="M 336.444016 205.476947 
L 336.444016 22.132065 
" style="fill: none; stroke: #000000; stroke-linejoin: miter; stroke-linecap: square"/>
   </g>
   <g id="patch_10">
    <path d="M 336.444016 205.476947 
L 439.916122 205.476947 
" style="fill: none; stroke: #000000; stroke-linejoin: miter; stroke-linecap: square"/>
   </g>
   <g id="PathCollection_9">
    <defs>
     <path id="m7561be8c76" d="M -2.738613 2.738613 
L 2.738613 2.738613 
L 2.738613 -2.738613 
L -2.738613 -2.738613 
z
" style="stroke: #b64342"/>
    </defs>
    <g clip-path="url(#pe9b28f3ccc)">
     <use xlink:href="#m7561be8c76" x="346.733511" y="197.143089" style="fill: #b64342; stroke: #b64342"/>
    </g>
   </g>
   <g id="PathCollection_10">
    <defs>
     <path id="m94f0ecc59b" d="M 0 2.738613 
C 0.726289 2.738613 1.422928 2.450055 1.936492 1.936492 
C 2.450055 1.422928 2.738613 0.726289 2.738613 0 
C 2.738613 -0.726289 2.450055 -1.422928 1.936492 -1.936492 
C 1.422928 -2.450055 0.726289 -2.738613 0 -2.738613 
C -0.726289 -2.738613 -1.422928 -2.450055 -1.936492 -1.936492 
C -2.450055 -1.422928 -2.738613 -0.726289 -2.738613 0 
C -2.738613 0.726289 -2.450055 1.422928 -1.936492 1.936492 
C -1.422928 2.450055 -0.726289 2.738613 0 2.738613 
z
" style="stroke: #0f4d92"/>
    </defs>
    <g clip-path="url(#pe9b28f3ccc)">
     <use xlink:href="#m94f0ecc59b" x="435.212845" y="197.143089" style="fill: #0f4d92; stroke: #0f4d92"/>
    </g>
   </g>
   <g id="PathCollection_11">
    <g clip-path="url(#pe9b28f3ccc)">
     <use xlink:href="#m7561be8c76" x="341.147294" y="141.584034" style="fill: #b64342; stroke: #b64342"/>
    </g>
   </g>
   <g id="PathCollection_12">
    <g clip-path="url(#pe9b28f3ccc)">
     <use xlink:href="#m94f0ecc59b" x="427.071059" y="141.584034" style="fill: #0f4d92; stroke: #0f4d92"/>
    </g>
   </g>
   <g id="PathCollection_13">
    <g clip-path="url(#pe9b28f3ccc)">
     <use xlink:href="#m7561be8c76" x="343.084233" y="30.465923" style="fill: #b64342; stroke: #b64342"/>
    </g>
   </g>
   <g id="PathCollection_14">
    <g clip-path="url(#pe9b28f3ccc)">
     <use xlink:href="#m94f0ecc59b" x="427.939622" y="30.465923" style="fill: #0f4d92; stroke: #0f4d92"/>
    </g>
   </g>
   <g id="text_52">
    <text style="font-weight: 700; font-size: 9px; font-family: 'Microsoft YaHei', 'SimHei', 'Arial', 'Helvetica', 'DejaVu Sans', sans-serif; text-anchor: start; fill: #222222" x="313.680153" y="14.394375" transform="rotate(-0 313.680153 14.394375)">c</text>
   </g>
   <g id="text_53">
    <text style="font-size: 8.6px; font-family: 'Microsoft YaHei', 'SimHei', 'Arial', 'Helvetica', 'DejaVu Sans', sans-serif; text-anchor: middle; fill: #222222" x="388.180069" y="14.132065" transform="rotate(-0 388.180069 14.132065)">问题三的均值-尾部区间</text>
   </g>
  </g>
 </g>
 <defs>
  <clipPath id="p22e31ca99f">
   <rect x="37.8925" y="22.132065" width="113.819316" height="183.344882"/>
  </clipPath>
  <clipPath id="p11f958b8b9">
   <rect x="192.341863" y="22.132065" width="103.472106" height="183.344882"/>
  </clipPath>
  <clipPath id="pe9b28f3ccc">
   <rect x="336.444016" y="22.132065" width="103.472106" height="183.344882"/>
  </clipPath>
 </defs>
</svg>
